:SAMPLES-PER-SECOND 30
:FULLY-SPECIFIED
:DEGREES
82
root  22.3196 38.6672 12.2149 -131.163 -81.9083 123.793
RightUpLeg  -13.5979 1.5983 -10.8541
RightLeg  61.1181 1.68217 2.81871
RightFoot  1.49786 -0.767641 6.89157
RightToes  -1.74624e-010 0 -3.6325e-017
Spine  7.09329 -0.501809 -8.47624
Spine1  5.43914 -1.17996 -2.1719
HEad  -11.8428 -2.34811 -2.33675
LeftShoulder1  -0.572169 4.99039 -32.3417
LeftArm  3.57833 -3.09129 -42.9634
LeftForeArm  21.1167 -21.4602 -4.26801
LeftHand  -0.0276905 5.33658 1.72402
RightShoulder  -1.04228 -6.28116 30.9672
RightArm  30.102 -9.6535 45.6283
RightForeArm  12.2551 17.7878 5.96218
RightHand  -0.0247168 4.12435 -0.588096
LeftUpLeg  -4.84763 6.05496 -7.74154
LeftLeg  18.0411 5.66865 0.439072
LeftFoot  -6.23377 -0.219112 5.74758
LeftToes  -3.96543e-010 8.93632e-011 -2.58531e-011
83
root  21.2601 38.8377 12.2723 -137.506 -81.8474 129.976
RightUpLeg  -15.8052 1.85744 -9.65807
RightLeg  54.8513 1.21981 1.45707
RightFoot  -0.19922 -0.560539 5.76126
RightToes  -1.74624e-010 0 -3.6325e-017
Spine  7.2223 -0.654145 -8.78179
Spine1  5.42864 -1.51754 -1.03174
HEad  -11.5814 -2.64131 -2.20452
LeftShoulder1  -0.601527 5.06812 -32.2807
LeftArm  3.26704 -4.90225 -42.7697
LeftForeArm  20.669 -25.6408 -4.31196
LeftHand  -0.0190544 5.81778 2.65243
RightShoulder  -1.0111 -6.22645 30.5758
RightArm  30.4998 -10.9259 45.1487
RightForeArm  10.8345 19.4186 5.23013
RightHand  -0.0311239 4.27354 -0.651344
LeftUpLeg  -1.95886 6.02763 -7.03995
LeftLeg  16.3767 6.43938 0.0692109
LeftFoot  -7.08397 -0.170172 5.72575
LeftToes  -3.96543e-010 8.93632e-011 -2.58531e-011
84
root  20.2286 38.9381 12.3036 -139.567 -81.9056 132.208
RightUpLeg  -17.1912 0.793873 -8.7808
RightLeg  46.2625 0.669522 0.43874
RightFoot  -2.19336 -0.514889 6.23288
RightToes  -1.74624e-010 0 -3.6325e-017
Spine  7.21894 -0.941397 -8.98197
Spine1  5.06861 -1.81354 -0.466097
HEad  -12.1338 -2.52406 -0.673177
LeftShoulder1  -0.518483 4.87364 -31.7153
LeftArm  1.07364 -6.75137 -42.9133
LeftForeArm  22.032 -28.3586 -4.93093
LeftHand  -0.0206258 5.65518 3.05644
RightShoulder  -1.02433 -6.26162 30.5826
RightArm  30.4927 -11.9393 44.786
RightForeArm  10.6426 20.2596 4.89783
RightHand  -0.0101327 3.55228 -0.383358
LeftUpLeg  0.344922 5.77357 -6.87742
LeftLeg  14.8941 7.05732 0.0236112
LeftFoot  -7.89733 -0.1309 5.94108
LeftToes  -3.96543e-010 8.93632e-011 -2.58531e-011
85
root  19.1877 39.0024 12.3123 -140.966 -81.9287 133.764
RightUpLeg  -17.4233 -1.01468 -7.56124
RightLeg  35.8294 -0.775078 -0.79473
RightFoot  -2.4062 -0.49099 6.06768
RightToes  -1.74624e-010 0 -3.6325e-017
Spine  7.1537 -1.34374 -9.28487
Spine1  4.84954 -2.28097 0.431495
HEad  -11.7212 -3.25168 -0.244046
LeftShoulder1  -0.587953 5.0617 -31.57
LeftArm  -0.182669 -8.15304 -42.5642
LeftForeArm  22.9396 -31.14 -5.52912
LeftHand  -0.0326494 5.10329 3.44248
RightShoulder  -0.992625 -6.19962 30.2574
RightArm  30.0858 -12.3809 45.1836
RightForeArm  11.4453 19.8453 5.00507
RightHand  0.0167988 4.25473 -0.0807322
LeftUpLeg  2.53008 5.77194 -6.81312
LeftLeg  13.7109 7.27997 0.0277207
LeftFoot  -8.83854 -0.0787856 6.0049
LeftToes  -3.96543e-010 8.93632e-011 -2.58531e-011
86
root  18.1341 39.0208 12.2873 -141.48 -81.4029 134.306
RightUpLeg  -16.583 -4.48305 -6.18147
RightLeg  24.782 -3.02256 -1.8159
RightFoot  -2.17139 -0.504552 6.04853
RightToes  -1.74624e-010 0 -3.6325e-017
Spine  6.4802 -1.45325 -9.33251
Spine1  5.41187 -2.22558 0.48216
HEad  -11.8455 -5.69419 0.404964
LeftShoulder1  -0.489774 4.82952 -30.8095
LeftArm  -1.35124 -9.30019 -42.8404
LeftForeArm  23.8664 -32.8841 -5.90537
LeftHand  -0.0341227 5.06996 3.7526
RightShoulder  -1.0345 -6.29458 30.5163
RightArm  30.4597 -12.7784 45.2151
RightForeArm  11.4565 19.6969 5.07722
RightHand  0.078332 4.63855 0.615537
LeftUpLeg  4.92674 5.803 -7.13543
LeftLeg  12.3293 7.80355 -0.139751
LeftFoot  -9.86951 -0.0118069 5.59072
LeftToes  -3.96543e-010 8.93632e-011 -2.58531e-011
87
root  17.071 38.9994 12.2745 -142.222 -80.839 134.985
RightUpLeg  -15.5224 -11.6194 -3.88384
RightLeg  15.9555 -3.04105 -0.95014
RightFoot  -0.251916 -0.531706 5.46867
RightToes  -1.74624e-010 0 -3.6325e-017
Spine  6.20133 -1.6066 -8.8917
Spine1  5.52849 -2.26142 0.559717
HEad  -11.2379 -8.19285 0.972334
LeftShoulder1  -0.476061 4.79717 -30.6612
LeftArm  -1.64124 -10.0571 -42.5313
LeftForeArm  23.9712 -33.9442 -6.16863
LeftHand  -0.0347531 5.05798 3.93703
RightShoulder  -1.01171 -6.24054 30.4069
RightArm  30.6347 -13.5894 45.5073
RightForeArm  11.7446 19.7116 5.07189
RightHand  0.047461 4.38118 0.293079
LeftUpLeg  7.18545 5.71158 -7.60325
LeftLeg  11.4395 8.63222 -0.132269
LeftFoot  -10.9032 0.0440326 5.54447
LeftToes  -3.96543e-010 8.93632e-011 -2.58531e-011
88
root  15.9868 38.9696 12.245 -146.796 -79.8464 139.629
RightUpLeg  -15.093 -18.6326 -1.19326
RightLeg  11.8056 -4.69797 1.05049
RightFoot  4.15318 0.216575 -0.976457
RightToes  -1.74624e-010 0 -3.6325e-017
Spine  5.40082 -1.48083 -7.23699
Spine1  6.01507 -1.81754 -0.0680397
HEad  -11.1173 -12.6076 1.09074
LeftShoulder1  -0.455414 4.74791 -30.4635
LeftArm  -1.87457 -10.0143 -42.3138
LeftForeArm  24.5531 -34.4136 -6.25591
LeftHand  -0.0394945 4.83201 3.45563
RightShoulder  -0.980051 -6.16949 30.1992
RightArm  31.9353 -14.446 45.7061
RightForeArm  11.9116 20.1148 4.962
RightHand  0.10912 3.9266 1.08986
LeftUpLeg  8.93329 6.14005 -7.77713
LeftLeg  11.3729 9.55631 0.104257
LeftFoot  -11.9551 0.0989162 4.85551
LeftToes  -3.96543e-010 8.93632e-011 -2.58531e-011
89
root  14.9082 38.9309 12.2208 -152.645 -78.2531 145.317
RightUpLeg  -14.6626 -17.8509 -0.322123
RightLeg  12.5975 -13.3719 0.968837
RightFoot  5.72705 2.0158 -13.3565
RightToes  -1.74624e-010 0 -3.6325e-017
Spine  5.05233 -1.25142 -4.51992
Spine1  6.32976 -1.11583 -1.34027
HEad  -11.5285 -17.7526 0.780977
LeftShoulder1  -0.484705 4.83227 -30.3189
LeftArm  -1.99172 -9.13197 -41.9782
LeftForeArm  24.9182 -34.2964 -6.20435
LeftHand  -0.0475392 4.46836 3.31232
RightShoulder  -1.01437 -6.23526 30.5766
RightArm  33.1377 -14.8724 45.4613
RightForeArm  11.405 20.3236 4.95303
RightHand  0.0471957 4.1367 0.302652
LeftUpLeg  10.6016 9.44831 -7.11653
LeftLeg  12.2283 7.82077 0.191044
LeftFoot  -13.0228 0.125502 3.38753
LeftToes  -3.96543e-010 8.93632e-011 -2.58531e-011
90
root  13.7834 38.7016 12.2323 -158.943 -75.904 150.902
RightUpLeg  -14.4435 -18.0048 0.257542
RightLeg  16.6501 -11.7478 -0.967103
RightFoot  1.50193 1.62895 -14.1982
RightToes  -1.74624e-010 0 -3.6325e-017
Spine  5.47518 -1.03994 -1.43218
Spine1  6.19996 -0.295471 -3.03197
HEad  -12.6428 -22.1715 -0.242815
LeftShoulder1  -0.607097 5.12999 -31.1737
LeftArm  -1.57302 -7.10485 -40.6865
LeftForeArm  25.1158 -34.5284 -6.25224
LeftHand  -0.0557598 4.1198 3.26549
RightShoulder  -1.04598 -6.30489 30.7874
RightArm  32.9373 -14.2331 45.2839
RightForeArm  12.0807 19.5024 5.27514
RightHand  0.00404795 4.27862 -0.232336
LeftUpLeg  10.8249 16.1613 -5.63705
LeftLeg  17.8718 2.78427 1.03528
LeftFoot  -14.9061 0.082508 0.0631821
LeftToes  -3.96543e-010 8.93632e-011 -2.58531e-011
91
root  12.764 38.4786 12.2816 -171.013 -73.9041 163.017
RightUpLeg  -14.917 -20.3661 3.25392
RightLeg  20.6431 -6.35562 -1.77762
RightFoot  -1.2165 1.15371 -13.0639
RightToes  -1.74624e-010 0 -3.6325e-017
Spine  6.24984 -1.08997 3.78225
Spine1  5.55485 0.260085 -4.24798
HEad  -13.9788 -26.278 -1.25182
LeftShoulder1  -0.677162 5.27882 -32.008
LeftArm  -1.30134 -4.15032 -40.0495
LeftForeArm  24.6761 -33.6789 -6.06107
LeftHand  -0.0406921 4.66901 3.39833
RightShoulder  -1.0615 -6.33079 30.9954
RightArm  31.5027 -12.3203 44.7057
RightForeArm  13.548 17.8373 5.98039
RightHand  0.00342595 3.95388 -0.22666
LeftUpLeg  8.32823 18.9848 -2.01771
LeftLeg  27.5707 0.225415 0.488265
LeftFoot  -15.7682 -0.0863513 -5.0645
LeftToes  -3.96543e-010 8.93632e-011 -2.58531e-011
92
root  11.8589 38.3495 12.2685 179.16 -71.5435 174.128
RightUpLeg  -14.9864 -19.1019 6.17436
RightLeg  21.8262 -5.53308 -1.41025
RightFoot  -2.70852 0.95453 -12.8291
RightToes  -1.74624e-010 0 -3.6325e-017
Spine  5.82197 -0.946984 7.44081
Spine1  5.47418 0.397565 -3.1229
HEad  -15.1464 -30.3411 -1.82102
LeftShoulder1  -0.628467 5.14123 -32.2262
LeftArm  -0.849556 -0.495042 -40.9095
LeftForeArm  23.4313 -31.4111 -5.56875
LeftHand  0.00564968 6.33156 4.51666
RightShoulder  -1.01214 -6.21892 30.715
RightArm  26.2697 -9.47149 44.3733
RightForeArm  17.3403 15.145 6.79974
RightHand  0.0166755 3.49929 -0.025989
LeftUpLeg  2.9325 19.6154 1.57503
LeftLeg  38.963 -1.62374 -1.03022
LeftFoot  -11.9582 0.0231611 -10.674
LeftToes  -3.96543e-010 8.93632e-011 -2.58531e-011
93
root  11.1048 38.243 12.22 175.17 -70.1215 178.253
RightUpLeg  -14.1697 -17.2236 6.9104
RightLeg  23.2198 -6.47174 -1.42835
RightFoot  -4.42233 0.74456 -12.7286
RightToes  -1.74624e-010 0 -3.6325e-017
Spine  6.75907 -1.3478 7.13229
Spine1  5.34856 -0.528323 0.349434
HEad  -17.4076 -33.2087 -0.0839374
LeftShoulder1  -0.565773 4.98557 -32.0357
LeftArm  0.213744 2.95787 -42.1865
LeftForeArm  22.1091 -28.2159 -4.86506
LeftHand  0.00787788 6.18056 4.20199
RightShoulder  -0.966169 -6.09424 30.7184
RightArm  20.3627 -6.32409 43.9486
RightForeArm  19.7454 13.3632 6.70435
RightHand  0.0688725 3.67243 0.629167
LeftUpLeg  -2.30281 17.8938 3.22578
LeftLeg  49.0595 -1.98496 -1.97423
LeftFoot  -5.21175 0.65442 -11.9185
LeftToes  -3.96543e-010 8.93632e-011 -2.58531e-011
